<svg xmlns="http://www.w3.org/2000/svg" xmlns:xlink="http://www.w3.org/1999/xlink" width="500" zoomAndPan="magnify" viewBox="0 0 375 374.999991" height="500" preserveAspectRatio="xMidYMid meet" version="1.0"><defs><clipPath id="75865669ea"><path d="M 107 107 L 268 107 L 268 268 L 107 268 Z M 107 107 " clip-rule="nonzero"/></clipPath><clipPath id="37f99cf8ac"><path d="M 104.609375 261.417969 L 261.445312 104.582031 L 270.410156 113.550781 L 113.578125 270.386719 Z M 104.609375 261.417969 " clip-rule="nonzero"/></clipPath><clipPath id="697539ca31"><path d="M 109.09375 256.9375 L 256.9375 109.09375 C 259.414062 106.617188 263.429688 106.617188 265.902344 109.09375 C 268.378906 111.566406 268.378906 115.582031 265.902344 118.058594 L 118.058594 265.902344 C 115.585938 268.378906 111.570312 268.378906 109.09375 265.902344 C 106.617188 263.425781 106.617188 259.410156 109.09375 256.9375 Z M 109.09375 256.9375 " clip-rule="nonzero"/></clipPath><clipPath id="4d43e169bd"><path d="M 107 107 L 268 107 L 268 268 L 107 268 Z M 107 107 " clip-rule="nonzero"/></clipPath><clipPath id="589ddfcfb5"><path d="M 113.578125 104.613281 L 270.410156 261.449219 L 261.445312 270.417969 L 104.609375 113.582031 Z M 113.578125 104.613281 " clip-rule="nonzero"/></clipPath><clipPath id="d090555f67"><path d="M 118.058594 109.097656 L 265.902344 256.941406 C 268.378906 259.417969 268.378906 263.433594 265.902344 265.90625 C 263.425781 268.382812 259.414062 268.382812 256.9375 265.90625 L 109.09375 118.0625 C 106.617188 115.589844 106.617188 111.574219 109.09375 109.097656 C 111.570312 106.621094 115.582031 106.621094 118.058594 109.097656 Z M 118.058594 109.097656 " clip-rule="nonzero"/></clipPath></defs><g clip-path="url(#75865669ea)"><g clip-path="url(#37f99cf8ac)"><g clip-path="url(#697539ca31)"><path fill="#ffffff" d="M 104.609375 261.417969 L 261.410156 104.617188 L 270.378906 113.585938 L 113.578125 270.386719 Z M 104.609375 261.417969 " fill-opacity="1" fill-rule="nonzero"/></g></g></g><g clip-path="url(#4d43e169bd)"><g clip-path="url(#589ddfcfb5)"><g clip-path="url(#d090555f67)"><path fill="#ffffff" d="M 113.578125 104.613281 L 270.375 261.414062 L 261.410156 270.382812 L 104.609375 113.582031 Z M 113.578125 104.613281 " fill-opacity="1" fill-rule="nonzero"/></g></g></g></svg>