<svg xmlns="http://www.w3.org/2000/svg" xmlns:xlink="http://www.w3.org/1999/xlink" width="500" zoomAndPan="magnify" viewBox="0 0 375 374.999991" height="500" preserveAspectRatio="xMidYMid meet" version="1.0"><defs><clipPath id="a9132d9276"><path d="M 99.101562 98.203125 L 275.898438 98.203125 L 275.898438 277 L 99.101562 277 Z M 99.101562 98.203125 " clip-rule="nonzero"/></clipPath><clipPath id="6f071b13ae"><path d="M 125.351562 98.203125 L 249.648438 98.203125 C 256.609375 98.203125 263.289062 100.96875 268.210938 105.890625 C 273.132812 110.8125 275.898438 117.488281 275.898438 124.453125 L 275.898438 250.546875 C 275.898438 257.511719 273.132812 264.1875 268.210938 269.109375 C 263.289062 274.03125 256.609375 276.796875 249.648438 276.796875 L 125.351562 276.796875 C 118.390625 276.796875 111.710938 274.03125 106.789062 269.109375 C 101.867188 264.1875 99.101562 257.511719 99.101562 250.546875 L 99.101562 124.453125 C 99.101562 117.488281 101.867188 110.8125 106.789062 105.890625 C 111.710938 100.96875 118.390625 98.203125 125.351562 98.203125 Z M 125.351562 98.203125 " clip-rule="nonzero"/></clipPath><clipPath id="a5c9438624"><path d="M 99.101562 98.203125 L 276 98.203125 L 276 276.703125 L 99.101562 276.703125 Z M 99.101562 98.203125 " clip-rule="nonzero"/></clipPath><clipPath id="9efae2f578"><path d="M 125.347656 98.203125 L 249.640625 98.203125 C 256.601562 98.203125 263.277344 100.96875 268.203125 105.894531 C 273.125 110.816406 275.890625 117.492188 275.890625 124.453125 L 275.890625 250.542969 C 275.890625 257.503906 273.125 264.179688 268.203125 269.105469 C 263.277344 274.027344 256.601562 276.792969 249.640625 276.792969 L 125.347656 276.792969 C 118.386719 276.792969 111.710938 274.027344 106.789062 269.105469 C 101.867188 264.179688 99.101562 257.503906 99.101562 250.542969 L 99.101562 124.453125 C 99.101562 117.492188 101.867188 110.816406 106.789062 105.894531 C 111.710938 100.96875 118.386719 98.203125 125.347656 98.203125 Z M 125.347656 98.203125 " clip-rule="nonzero"/></clipPath></defs><g clip-path="url(#a9132d9276)"><g clip-path="url(#6f071b13ae)"><path fill="#000000" d="M 99.101562 98.203125 L 275.898438 98.203125 L 275.898438 277.070312 L 99.101562 277.070312 Z M 99.101562 98.203125 " fill-opacity="1" fill-rule="nonzero"/></g></g><g clip-path="url(#a5c9438624)"><g clip-path="url(#9efae2f578)"><path stroke-linecap="butt" transform="matrix(0.75, 0, 0, 0.75, 99.100707, 98.204554)" fill="none" stroke-linejoin="miter" d="M 34.995935 -0.0019058 L 200.719904 -0.0019058 C 210.001155 -0.0019058 218.902197 3.685594 225.469906 10.253303 C 232.032406 16.815804 235.719906 25.716846 235.719906 34.998096 L 235.719906 203.117899 C 235.719906 212.39915 232.032406 221.300192 225.469906 227.867901 C 218.902197 234.430401 210.001155 238.117902 200.719904 238.117902 L 34.995935 238.117902 C 25.714684 238.117902 16.813642 234.430401 10.251142 227.867901 C 3.688641 221.300192 0.00114094 212.39915 0.00114094 203.117899 L 0.00114094 34.998096 C 0.00114094 25.716846 3.688641 16.815804 10.251142 10.253303 C 16.813642 3.685594 25.714684 -0.0019058 34.995935 -0.0019058 Z M 34.995935 -0.0019058 " stroke="#ffffff" stroke-width="32" stroke-opacity="1" stroke-miterlimit="4"/></g></g></svg>