<svg xmlns="http://www.w3.org/2000/svg" xmlns:xlink="http://www.w3.org/1999/xlink" width="500" zoomAndPan="magnify" viewBox="0 0 375 374.999991" height="500" preserveAspectRatio="xMidYMid meet" version="1.0"><defs><clipPath id="5227de9e76"><path d="M 110.496094 88.589844 L 287.496094 88.589844 L 287.496094 267.085938 L 110.496094 267.085938 Z M 110.496094 88.589844 " clip-rule="nonzero"/></clipPath><clipPath id="e8178f8bf8"><path d="M 136.746094 88.589844 L 261.035156 88.589844 C 268 88.589844 274.675781 91.355469 279.597656 96.277344 C 284.519531 101.199219 287.285156 107.875 287.285156 114.835938 L 287.285156 240.925781 C 287.285156 247.890625 284.519531 254.566406 279.597656 259.488281 C 274.675781 264.410156 268 267.175781 261.035156 267.175781 L 136.746094 267.175781 C 129.785156 267.175781 123.105469 264.410156 118.183594 259.488281 C 113.261719 254.566406 110.496094 247.890625 110.496094 240.925781 L 110.496094 114.835938 C 110.496094 107.875 113.261719 101.199219 118.183594 96.277344 C 123.105469 91.355469 129.785156 88.589844 136.746094 88.589844 Z M 136.746094 88.589844 " clip-rule="nonzero"/></clipPath><clipPath id="54bc9ed03a"><path d="M 87.703125 107.816406 L 264.503906 107.816406 L 264.503906 286.6875 L 87.703125 286.6875 Z M 87.703125 107.816406 " clip-rule="nonzero"/></clipPath><clipPath id="294af0ddc1"><path d="M 113.953125 107.816406 L 238.253906 107.816406 C 245.214844 107.816406 251.890625 110.582031 256.816406 115.503906 C 261.738281 120.429688 264.503906 127.105469 264.503906 134.066406 L 264.503906 260.164062 C 264.503906 267.125 261.738281 273.804688 256.816406 278.726562 C 251.890625 283.648438 245.214844 286.414062 238.253906 286.414062 L 113.953125 286.414062 C 106.992188 286.414062 100.316406 283.648438 95.394531 278.726562 C 90.46875 273.804688 87.703125 267.125 87.703125 260.164062 L 87.703125 134.066406 C 87.703125 127.105469 90.46875 120.429688 95.394531 115.503906 C 100.316406 110.582031 106.992188 107.816406 113.953125 107.816406 Z M 113.953125 107.816406 " clip-rule="nonzero"/></clipPath><clipPath id="654b996dba"><path d="M 87.703125 107.820312 L 264.703125 107.820312 L 264.703125 286.316406 L 87.703125 286.316406 Z M 87.703125 107.820312 " clip-rule="nonzero"/></clipPath><clipPath id="47cc2e542a"><path d="M 113.953125 107.820312 L 238.246094 107.820312 C 245.207031 107.820312 251.882812 110.585938 256.804688 115.507812 C 261.730469 120.429688 264.492188 127.105469 264.492188 134.070312 L 264.492188 260.160156 C 264.492188 267.121094 261.730469 273.796875 256.804688 278.71875 C 251.882812 283.640625 245.207031 286.40625 238.246094 286.40625 L 113.953125 286.40625 C 106.992188 286.40625 100.316406 283.640625 95.394531 278.71875 C 90.46875 273.796875 87.703125 267.121094 87.703125 260.160156 L 87.703125 134.070312 C 87.703125 127.105469 90.46875 120.429688 95.394531 115.507812 C 100.316406 110.585938 106.992188 107.820312 113.953125 107.820312 Z M 113.953125 107.820312 " clip-rule="nonzero"/></clipPath></defs><g clip-path="url(#5227de9e76)"><g clip-path="url(#e8178f8bf8)"><path stroke-linecap="butt" transform="matrix(0.75, 0, 0, 0.75, 110.496391, 88.588756)" fill="none" stroke-linejoin="miter" d="M 34.999606 0.00145062 L 200.718367 0.00145062 C 210.004826 0.00145062 218.905868 3.688951 225.468369 10.251451 C 232.030869 16.813952 235.718369 25.714994 235.718369 34.996245 L 235.718369 203.116047 C 235.718369 212.402506 232.030869 221.303548 225.468369 227.866049 C 218.905868 234.428549 210.004826 238.11605 200.718367 238.11605 L 34.999606 238.11605 C 25.718356 238.11605 16.812105 234.428549 10.249605 227.866049 C 3.687104 221.303548 -0.000396125 212.402506 -0.000396125 203.116047 L -0.000396125 34.996245 C -0.000396125 25.714994 3.687104 16.813952 10.249605 10.251451 C 16.812105 3.688951 25.718356 0.00145062 34.999606 0.00145062 Z M 34.999606 0.00145062 " stroke="#ffffff" stroke-width="32" stroke-opacity="1" stroke-miterlimit="4"/></g></g><g clip-path="url(#54bc9ed03a)"><g clip-path="url(#294af0ddc1)"><path fill="#000000" d="M 87.703125 107.816406 L 264.503906 107.816406 L 264.503906 286.6875 L 87.703125 286.6875 Z M 87.703125 107.816406 " fill-opacity="1" fill-rule="nonzero"/></g></g><g clip-path="url(#654b996dba)"><g clip-path="url(#47cc2e542a)"><path stroke-linecap="butt" transform="matrix(0.75, 0, 0, 0.75, 87.70502, 107.820353)" fill="none" stroke-linejoin="miter" d="M 34.997475 -0.0000538931 L 200.721444 -0.0000538931 C 210.002695 -0.0000538931 218.903737 3.687446 225.466238 10.249947 C 232.033946 16.812447 235.716238 25.713489 235.716238 34.999948 L 235.716238 203.119751 C 235.716238 212.401002 232.033946 221.302044 225.466238 227.864544 C 218.903737 234.427045 210.002695 238.114545 200.721444 238.114545 L 34.997475 238.114545 C 25.716225 238.114545 16.815182 234.427045 10.252682 227.864544 C 3.684973 221.302044 -0.00252712 212.401002 -0.00252712 203.119751 L -0.00252712 34.999948 C -0.00252712 25.713489 3.684973 16.812447 10.252682 10.249947 C 16.815182 3.687446 25.716225 -0.0000538931 34.997475 -0.0000538931 Z M 34.997475 -0.0000538931 " stroke="#ffffff" stroke-width="32" stroke-opacity="1" stroke-miterlimit="4"/></g></g></svg>